<svg width="44" height="40" viewBox="0 0 44 40" fill="none" xmlns="http://www.w3.org/2000/svg">
<path fill-rule="evenodd" clip-rule="evenodd" d="M39.0374 0.821714C39.5729 0.586141 40.1589 0.504893 40.7346 0.586427C41.3103 0.667961 41.8545 0.909296 42.3107 1.28531C42.7668 1.66133 43.1182 2.15828 43.3283 2.72444C43.5384 3.29061 43.5995 3.90528 43.5052 4.50449L38.5911 35.6631C38.1144 38.6687 34.9597 40.3923 32.3228 38.8952C30.1171 37.6427 26.841 35.713 23.8943 33.6994C22.4209 32.6915 17.9076 29.464 18.4623 27.1674C18.939 25.2037 26.5225 17.8245 30.8559 13.4374C32.5568 11.7138 31.7811 10.7195 29.7726 12.3049C24.7848 16.2414 16.7766 22.2276 14.1289 23.9127C11.7932 25.3985 10.5755 25.6521 9.11945 25.3985C6.46306 24.9364 3.99951 24.2207 1.9888 23.3487C-0.728258 22.1709 -0.596089 18.2662 1.98663 17.1292L39.0374 0.821714Z" fill="#3BF270"/>
</svg>
