<svg width="140" height="140" viewBox="0 0 140 140" fill="none" xmlns="http://www.w3.org/2000/svg">
<g clip-path="url(#clip0_17_423)">
<path d="M66.4999 131.696C98.6405 131.696 124.696 105.641 124.696 73.4999C124.696 41.3593 98.6405 15.3042 66.4999 15.3042C34.3593 15.3042 8.3042 41.3593 8.3042 73.4999C8.3042 105.641 34.3593 131.696 66.4999 131.696Z" fill="#3BF270" stroke="#3BF270" stroke-width="12.6087"/>
<g filter="url(#filter0_d_17_423)">
<path d="M128.934 73.5002C135.598 73.5002 141.1 68.0632 140.025 61.4871C139.102 55.8389 137.529 50.3025 135.329 44.9903C131.585 35.9515 126.097 27.7387 119.179 20.8207C112.261 13.9028 104.049 8.41512 95.01 4.67122C89.6977 2.47082 84.1613 0.89802 78.513 -0.0248803C71.9366 -1.09938 66.5 4.40222 66.5 11.0659V61.4345C66.5 68.0982 71.902 73.5002 78.5657 73.5002H128.934Z" fill="url(#paint0_linear_17_423)" fill-opacity="0.4"/>
<mask id="mask0_17_423" style="mask-type:luminance" maskUnits="userSpaceOnUse" x="66" y="-1" width="75" height="75">
<path d="M128.934 73.5002C135.598 73.5002 141.1 68.0632 140.025 61.4871C139.102 55.8389 137.529 50.3025 135.329 44.9903C131.585 35.9515 126.097 27.7387 119.179 20.8207C112.261 13.9028 104.049 8.41512 95.01 4.67122C89.6977 2.47082 84.1613 0.89802 78.513 -0.0248803C71.9366 -1.09938 66.5 4.40222 66.5 11.0659V61.4345C66.5 68.0982 71.902 73.5002 78.5657 73.5002H128.934Z" fill="white"/>
</mask>
<g mask="url(#mask0_17_423)">
<path d="M128.934 73.5002C135.598 73.5002 141.1 68.0632 140.025 61.4871C139.102 55.8389 137.529 50.3025 135.329 44.9903C131.585 35.9515 126.097 27.7387 119.179 20.8207C112.261 13.9028 104.049 8.41512 95.01 4.67122C89.6977 2.47082 84.1613 0.89802 78.513 -0.0248803C71.9366 -1.09938 66.5 4.40222 66.5 11.0659V61.4345C66.5 68.0982 71.902 73.5002 78.5657 73.5002H128.934Z" stroke="url(#paint1_linear_17_423)" stroke-opacity="0.6" stroke-width="2.52174"/>
</g>
</g>
</g>
<defs>
<filter id="filter0_d_17_423" x="28.674" y="-37.9857" width="149.312" height="149.312" filterUnits="userSpaceOnUse" color-interpolation-filters="sRGB">
<feFlood flood-opacity="0" result="BackgroundImageFix"/>
<feColorMatrix in="SourceAlpha" type="matrix" values="0 0 0 0 0 0 0 0 0 0 0 0 0 0 0 0 0 0 127 0" result="hardAlpha"/>
<feOffset/>
<feGaussianBlur stdDeviation="18.913"/>
<feComposite in2="hardAlpha" operator="out"/>
<feColorMatrix type="matrix" values="0 0 0 0 0 0 0 0 0 0 0 0 0 0 0 0 0 0 0.25 0"/>
<feBlend mode="normal" in2="BackgroundImageFix" result="effect1_dropShadow_17_423"/>
<feBlend mode="normal" in="SourceGraphic" in2="effect1_dropShadow_17_423" result="shape"/>
</filter>
<linearGradient id="paint0_linear_17_423" x1="59.3739" y1="-7.47808" x2="98.088" y2="92.7292" gradientUnits="userSpaceOnUse">
<stop stop-color="white"/>
<stop offset="1" stop-color="white" stop-opacity="0.5"/>
</linearGradient>
<linearGradient id="paint1_linear_17_423" x1="57.4304" y1="24.9132" x2="120.485" y2="108.098" gradientUnits="userSpaceOnUse">
<stop stop-color="white"/>
<stop offset="0.288462" stop-color="white" stop-opacity="0"/>
<stop offset="0.673077" stop-color="white"/>
<stop offset="1" stop-color="white" stop-opacity="0"/>
</linearGradient>
<clipPath id="clip0_17_423">
<rect width="140" height="140" fill="white"/>
</clipPath>
</defs>
</svg>
