<svg width="46" height="46" viewBox="0 0 46 46" fill="none" xmlns="http://www.w3.org/2000/svg">
<path d="M17.4801 0.671316L17.9975 2.76268C15.9619 3.26333 14.0137 4.06902 12.2191 5.1524L11.1121 3.30556C13.0898 2.11148 15.2368 1.22336 17.4801 0.671316ZM28.5199 0.671316L28.0025 2.76268C30.0381 3.26333 31.9863 4.06902 33.7809 5.1524L34.8951 3.30556C32.9151 2.11082 30.7657 1.22268 28.5199 0.671316ZM3.30632 11.1107C2.11218 13.0883 1.22401 15.2351 0.671944 17.4784L2.7637 17.9958C3.26437 15.9602 4.0701 14.0122 5.15353 12.2176L3.30632 11.1107ZM2.15636 22.998C2.15569 21.9527 2.23379 20.9088 2.39002 19.8753L0.258748 19.5517C-0.0862492 21.8363 -0.0862492 24.1597 0.258748 26.4443L2.39002 26.1207C2.23379 25.0871 2.15569 24.0433 2.15636 22.998ZM34.8885 42.6904L33.7815 40.8436C31.989 41.9262 30.0431 42.7318 28.0099 43.233L28.5276 45.3244C30.7685 44.7717 32.913 43.8837 34.8885 42.6904ZM43.8439 22.998C43.8446 24.0433 43.7665 25.0871 43.6103 26.1207L45.7412 26.4443C46.0862 24.1597 46.0862 21.8363 45.7412 19.5517L43.6103 19.8753C43.7665 20.9088 43.8446 21.9527 43.8439 22.998ZM45.3281 28.5176L43.2366 28.0002C42.7359 30.0357 41.9302 31.9838 40.8468 33.7784L42.6937 34.8925C43.8885 32.9126 44.7767 30.7633 45.3281 28.5176ZM26.1232 43.6104C24.0529 43.9218 21.9477 43.9218 19.8774 43.6104L19.5538 45.7413C21.8385 46.0862 24.1621 46.0862 26.4467 45.7413L26.1232 43.6104ZM39.7793 35.3632C38.5361 37.0468 37.0473 38.5344 35.3627 39.7761L36.6421 41.5119C38.5005 40.1455 40.1432 38.5077 41.5151 36.6534L39.7793 35.3632ZM35.3627 6.22041C37.0476 7.46323 38.5364 8.95194 39.7793 10.6368L41.5151 9.34314C40.1475 7.48986 38.5097 5.85216 36.6564 4.48467L35.3627 6.22041ZM6.22131 10.6368C7.46419 8.95194 8.95298 7.46323 10.6379 6.22041L9.3442 4.48467C7.49093 5.85218 5.85324 7.48989 4.48578 9.34314L6.22131 10.6368ZM42.6931 11.1112L40.8462 12.2179C41.9289 14.0103 42.7345 15.9561 43.2357 17.9892L45.3275 17.4718C44.7747 15.231 43.8866 13.0866 42.6931 11.1112ZM19.8768 2.38959C21.9471 2.07814 24.0523 2.07814 26.1226 2.38959L26.4462 0.258713C24.1616 -0.0862378 21.8381 -0.0862378 19.5535 0.258713L19.8768 2.38959ZM7.32747 42.0837L2.8748 43.1225L3.91337 38.67L1.81446 38.1775L0.776173 42.63C0.692487 42.9872 0.701346 43.3599 0.801912 43.7127C0.902479 44.0656 1.09143 44.3869 1.35087 44.6463C1.61031 44.9058 1.93167 45.0947 2.28453 45.1953C2.63739 45.2958 3.01007 45.3047 3.36731 45.221L7.81626 44.2005L7.32747 42.0837ZM2.26374 36.2554L4.36265 36.7439L5.08137 33.6572C4.03372 31.8965 3.2526 29.9903 2.76341 28.0008L0.671657 28.5182C1.14047 30.4236 1.85304 32.2607 2.79176 33.9839L2.26374 36.2554ZM12.3262 40.9269L9.23939 41.6456L9.7279 43.7444L11.9992 43.2158C13.7225 44.1546 15.5596 44.8672 17.4652 45.3361L17.9827 43.2447C15.9973 42.7497 14.096 41.9638 12.3405 40.9126L12.3262 40.9269ZM22.9994 4.31373C19.6605 4.31549 16.3831 5.21174 13.508 6.90928C10.6328 8.60682 8.26507 11.0436 6.65091 13.9663C5.03675 16.8889 4.23517 20.1907 4.32952 23.5281C4.42388 26.8655 5.41073 30.1166 7.18744 32.9434L5.39034 40.6085L13.0558 38.8115C15.5074 40.3557 18.2845 41.3087 21.1678 41.5952C24.0511 41.8817 26.9614 41.4939 29.669 40.4624C32.3766 39.4308 34.8073 37.7838 36.7689 35.6515C38.7305 33.5192 40.1694 30.9599 40.9719 28.176C41.7744 25.392 41.9185 22.4596 41.3928 19.6103C40.8671 16.7611 39.6861 14.0731 37.9429 11.7588C36.1998 9.44442 33.9424 7.56709 31.3489 6.27509C28.7555 4.98309 25.8972 4.31182 22.9997 4.31431L22.9994 4.31373Z" fill="#3BF270"/>
</svg>
