<svg width="176" height="176" viewBox="0 0 176 176" fill="none" xmlns="http://www.w3.org/2000/svg">
<g clip-path="url(#clip0_1_215)">
<path fill-rule="evenodd" clip-rule="evenodd" d="M152.623 122.184H145.069V101.529H152.623V83.7175H142.594V145.313H119.339L119.582 80.937V80.6939C120.943 67.0439 128.249 62.873 141.204 62.873H175.864L176 145.313H152.623V122.184Z" fill="#DD0333"/>
<path fill-rule="evenodd" clip-rule="evenodd" d="M155.263 119.549H147.704V104.163H155.263V81.078H139.96V142.678H121.974L122.202 81.078V80.9516C123.422 68.7016 129.606 65.5078 141.199 65.5078H173.224L173.331 142.678H155.263V119.549Z" fill="#DD0333"/>
<path fill-rule="evenodd" clip-rule="evenodd" d="M155.263 119.549H147.704V104.163H155.263V81.078H139.96V142.678H121.974L122.202 81.078V80.9516C123.422 68.7016 129.606 65.5078 141.199 65.5078H173.224L173.331 142.678H155.263V119.549Z" fill="white"/>
<path fill-rule="evenodd" clip-rule="evenodd" d="M170.721 140.043L170.619 68.1421H141.224C130.588 68.1421 125.897 70.6942 124.852 81.2136L124.633 140.033H137.32V78.4428H157.897V106.803H150.343V116.909H157.897V140.043H170.721Z" fill="#DD0333"/>
<path fill-rule="evenodd" clip-rule="evenodd" d="M1.09698 109.029C1.09698 107.357 1.13587 105.69 1.13587 104.017C1.13587 102.345 1.13587 100.683 1.09698 99.0105H0.999756V80.9417C0.999756 71.0591 7.2706 62.9556 17.6296 62.9556H40.3408C50.9478 62.9556 57.4811 70.3056 57.6075 80.6646V96.4001H34.2061V83.8195H24.4595V124.342H34.2061V109.311H57.6075V127.297C57.6075 137.676 50.9332 145.118 40.3408 145.118H17.6296C7.4213 145.118 1.10184 137.175 0.999756 127.395V109.029H1.09698Z" fill="#DD0333"/>
<path fill-rule="evenodd" clip-rule="evenodd" d="M3.69774 111.664C3.73177 109.117 3.77065 106.569 3.77065 104.017C3.77065 101.465 3.73177 98.9229 3.69774 96.3757H3.6394V80.9417C3.6394 72.5222 8.74358 65.5708 17.6297 65.5708H40.3457C49.4944 65.5708 54.861 71.759 54.968 80.6743V93.7313H36.8457V81.1944H21.82V126.986H36.8457V111.946H54.9583V127.283C54.9583 136.203 49.4555 142.469 40.3311 142.469H17.6297C8.87969 142.469 3.74149 135.688 3.6394 127.346V111.664H3.69774Z" fill="#DD0333"/>
<path fill-rule="evenodd" clip-rule="evenodd" d="M3.69774 111.664C3.73177 109.117 3.77065 106.569 3.77065 104.017C3.77065 101.465 3.73177 98.9229 3.69774 96.3757H3.6394V80.9417C3.6394 72.5222 8.74358 65.5708 17.6297 65.5708H40.3457C49.4944 65.5708 54.861 71.759 54.968 80.6743V93.7313H36.8457V81.1944H21.82V126.986H36.8457V111.946H54.9583V127.283C54.9583 136.203 49.4555 142.469 40.3311 142.469H17.6297C8.87969 142.469 3.74149 135.688 3.6394 127.346V111.664H3.69774Z" fill="white"/>
<path fill-rule="evenodd" clip-rule="evenodd" d="M52.333 127.283V114.581H39.4802V129.616H19.1851V78.5744H39.4802V91.1258H52.333V80.7084C52.2455 73.2514 48.0553 68.2104 40.3455 68.2104H17.6344C10.2066 68.2104 6.27393 74.0049 6.27393 80.9466V93.7362H6.29823C6.33712 97.1779 6.39545 100.595 6.40518 104.017C6.4149 107.44 6.34684 110.847 6.29823 114.304H6.27393V127.317C6.34684 134.181 10.3038 139.834 17.6344 139.834H40.3455C48.0601 139.834 52.333 134.691 52.333 127.283Z" fill="#DD0333"/>
<path fill-rule="evenodd" clip-rule="evenodd" d="M111.313 129.932C111.663 130.306 111.998 130.705 112.334 131.138C115.542 135.313 116.417 140.592 116.417 145.721V173.556H93.5456V145.736C93.5456 144.54 93.6283 143.305 93.5456 142.104C93.5177 141.696 93.4327 141.293 93.2929 140.908C93.0547 140.359 91.4553 140.257 91.0178 140.233L86.0498 139.936L86.0692 120.569L90.3422 119.748C90.9255 119.636 93.0595 119.169 93.4824 118.683C93.5437 118.454 93.5715 118.216 93.5651 117.979V90.9507H116.437V118.333C116.437 123.088 114.414 126.947 111.332 129.932M60.4414 90.9507H83.2887V173.556H60.4414V90.9507Z" fill="#DD0333"/>
<path fill-rule="evenodd" clip-rule="evenodd" d="M107.279 129.869C108.402 130.679 109.401 131.648 110.244 132.747C113.073 136.422 113.783 141.215 113.783 145.736V170.921H96.1855V145.736C96.1855 141.292 96.8563 137.958 91.1494 137.603L88.6654 137.452V122.738L90.7945 122.324C92.2043 122.052 94.3918 121.551 95.398 120.438C95.9529 119.74 96.2253 118.859 96.1612 117.969V93.5854H113.778V118.333C113.778 123.37 111.041 127.181 107.274 129.869M63.0764 93.5854H80.6688V170.921H63.0764V93.5854Z" fill="white"/>
<path fill-rule="evenodd" clip-rule="evenodd" d="M98.8205 145.735C98.8205 141.744 99.6809 135.468 91.3052 134.968V124.915C95.5879 124.089 98.8059 122.572 98.8059 117.968V96.2246H111.124V118.333C111.124 124.686 105.655 128.162 102.16 129.771C106.146 132.139 111.124 134.297 111.124 145.735V168.281H98.8205V145.735ZM65.7114 96.2246H78.0344V168.281H65.7114V96.2246Z" fill="#DD0333"/>
<path fill-rule="evenodd" clip-rule="evenodd" d="M98.9221 34.9067L134.578 34.8387L105.689 55.7366L116.772 89.6187L87.97 68.6137L59.1679 89.6187L70.2463 55.7366L41.3616 34.8387L77.0179 34.9067L87.97 0.98584L98.9221 34.9067Z" fill="#DD0333"/>
<path fill-rule="evenodd" clip-rule="evenodd" d="M97.5173 36.8417L128.59 36.7834L103.414 54.998L113.078 84.5244L87.9701 66.2175L62.8624 84.5244L72.5214 54.998L47.3457 36.7834L78.4228 36.8417L87.9701 7.27637L97.5173 36.8417Z" fill="white"/>
<path fill-rule="evenodd" clip-rule="evenodd" d="M87.9702 13.5718L96.1126 38.7815L122.606 38.7281L101.144 54.2594L109.374 79.44L87.9702 63.826L66.5618 79.44L74.7966 54.2594L53.3347 38.7281L79.8278 38.7815L87.9702 13.5718Z" fill="#DD0333"/>
</g>
<defs>
<clipPath id="clip0_1_215">
<rect width="176" height="176" fill="white"/>
</clipPath>
</defs>
</svg>
