<svg  viewBox="0 0 216 68" fill="none" xmlns="http://www.w3.org/2000/svg">
<path d="M13.2173 53.4015H26.4345V66.6187H13.2173V53.4015Z" fill="#3BF270"/>
<path d="M26.4343 40.1843H39.6515V53.4015H26.4343V40.1843Z" fill="white"/>
<path d="M26.4343 0.840088H39.6515V14.0573H26.4343V0.840088Z" fill="white"/>
<path d="M39.6516 0.840088H52.8688V53.4016H39.6516V0.840088Z" fill="white"/>
<path d="M13.2173 0.840088H26.4345V14.0573H13.2173V0.840088Z" fill="#3BF270"/>
<path d="M0 0.84021H13.2172V66.6189H0L0 0.84021Z" fill="#3BF270"/>
<path d="M215.007 52.5418H209.738C209.443 50.5185 208.347 49.8019 205.86 49.8019C203.795 49.8019 202.615 50.3077 202.615 51.5301C202.615 52.7526 203.753 53.2584 205.987 53.8907C208.347 54.5651 210.581 55.0288 212.183 55.6611C214.375 56.5462 215.597 57.9794 215.597 60.6772C215.597 64.9767 212.436 67.548 206.535 67.548C200.17 67.548 196.629 64.5552 196.545 60.34H202.193C202.193 62.279 203.837 63.4171 206.493 63.4171C208.432 63.4171 210.16 62.8269 210.16 61.2673C210.16 59.792 208.6 59.3283 206.83 58.9068C203.331 58.0637 201.392 57.4736 199.917 56.5463C197.978 55.3238 197.303 53.7221 197.303 51.8674C197.303 48.3687 199.706 45.7131 206.029 45.7131C212.015 45.7131 214.712 48.0737 215.007 52.5418Z" fill="white"/>
<path d="M189.98 67H184.5V46.2611H189.643V48.7481C191.455 45.966 193.563 45.7131 195.797 45.7131H196.514V51.3194C196.008 51.2351 195.502 51.1929 194.996 51.1929C191.624 51.1929 189.98 52.879 189.98 56.209V67Z" fill="white"/>
<path d="M168.485 54.6073H176.958C176.874 51.5301 174.85 50.0548 172.701 50.0548C170.509 50.0548 168.696 51.7409 168.485 54.6073ZM182.606 58.0637H168.317C168.485 61.183 170.256 63.2063 172.953 63.2063C174.724 63.2063 176.283 62.3211 176.663 60.8879H182.311C181.047 65.1453 177.632 67.548 173.206 67.548C166.293 67.548 162.837 63.7543 162.837 56.2512C162.837 49.8441 166.504 45.7131 172.869 45.7131C179.234 45.7131 182.606 49.8441 182.606 58.0637Z" fill="white"/>
<path d="M160.901 67H155.379V54.4386C155.379 51.2351 154.452 50.3499 151.838 50.3499C148.972 50.3499 147.581 51.9517 147.581 55.1131V67H142.101V46.2611H147.328V49.2961C148.593 46.9777 150.7 45.7131 154.03 45.7131C157.992 45.7131 160.901 48.1158 160.901 52.6261V67Z" fill="white"/>
<path d="M134.761 58.7382V53.3427H139.862V59.244C139.862 63.6279 137.333 67.548 131.474 67.548C125.404 67.548 123.001 63.67 123.001 59.2019V40.6549H128.396V46.2612H139.862V50.1392H128.396V58.6539C128.396 61.2673 129.324 62.7848 131.558 62.7848C133.75 62.7848 134.761 61.3095 134.761 58.7382Z" fill="white"/>
<path d="M114.938 67H109.458V46.2611H114.6V48.7481C116.413 45.966 118.52 45.7131 120.755 45.7131H121.471V51.3194C120.965 51.2351 120.459 51.1929 119.954 51.1929C116.581 51.1929 114.938 52.879 114.938 56.209V67Z" fill="white"/>
<path d="M101.519 59.1175L101.562 56.8413C101.014 57.3893 100.044 57.6844 98.0209 58.0637C94.9016 58.6539 93.8899 59.5391 93.8899 61.3094C93.8899 62.8691 94.8173 63.6278 96.5455 63.6278C99.3697 63.6278 101.477 61.5624 101.519 59.1175ZM107.041 67H101.941C101.772 66.4942 101.646 65.7776 101.604 65.1453C100.297 66.5785 98.1052 67.548 95.3231 67.548C90.6021 67.548 88.4102 65.2296 88.4102 61.8574C88.4102 55.8718 92.4146 55.1974 97.9366 54.4386C100.676 54.0593 101.435 53.5113 101.435 52.0781C101.435 50.7292 100.086 49.9284 97.9366 49.9284C95.4496 49.9284 94.4379 51.1508 94.185 53.0055H89.0846C89.1689 48.7059 91.5294 45.7131 98.1895 45.7131C104.765 45.7131 107.041 48.6638 107.041 53.8907V67Z" fill="white"/>
<path d="M72.9148 52.0781H78.4789C81.8511 52.0781 83.2421 50.3498 83.2421 47.905C83.2421 45.5866 81.8511 43.8584 78.4789 43.8584H72.9148V52.0781ZM72.9148 66.9999H67.0557V39.0109H79.4063C84.886 39.0109 88.3847 43.0153 88.3847 48.0736C88.3847 53.174 84.886 56.8413 79.4063 56.8413H72.9148V66.9999Z" fill="white"/>
<path d="M131.322 21.1175L131.364 18.8413C130.816 19.3893 129.847 19.6844 127.824 20.0637C124.704 20.6539 123.693 21.5391 123.693 23.3095C123.693 24.8691 124.62 25.6278 126.348 25.6278C129.172 25.6278 131.28 23.5624 131.322 21.1175ZM136.844 29H131.744C131.575 28.4942 131.449 27.7776 131.407 27.1453C130.1 28.5785 127.908 29.548 125.126 29.548C120.405 29.548 118.213 27.2296 118.213 23.8574C118.213 17.8718 122.217 17.1974 127.739 16.4386C130.479 16.0593 131.238 15.5113 131.238 14.0781C131.238 12.7292 129.889 11.9284 127.739 11.9284C125.252 11.9284 124.241 13.1508 123.988 15.0055H118.887C118.972 10.7059 121.332 7.71313 127.992 7.71313C134.568 7.71313 136.844 10.6638 136.844 15.8907V29Z" fill="#3BF270"/>
<path d="M106.357 24.8691C109.012 24.8691 111.036 22.635 111.036 19.1364C111.036 14.6261 109.476 12.4763 106.357 12.4763C103.28 12.4763 101.678 14.5418 101.678 18.7992C101.678 22.5086 103.659 24.8691 106.357 24.8691ZM110.867 29.6323V26.218C110.108 28.0727 107.874 29.1686 105.176 29.1686C98.3478 29.1686 95.9873 23.9417 95.9873 18.5041C95.9873 12.0548 100.034 7.71313 105.05 7.71313C107.663 7.71313 109.56 8.72479 110.867 10.8324V8.26111H116.347V29.2108C116.347 35.4493 111.794 38.8215 106.02 38.8215C100.245 38.8215 95.9873 35.4914 95.9873 30.1381H101.088C101.088 32.6251 102.9 34.1004 105.64 34.1004C108.549 34.1004 110.867 32.3722 110.867 29.6323Z" fill="#3BF270"/>
<path d="M93.9056 29H88.4258V8.26111H93.9056V29ZM93.9056 5.77413H88.4258V0.673706H93.9056V5.77413Z" fill="#3BF270"/>
<path d="M86.7829 28.9999H67.0557V1.01086H72.9148V23.8995H86.7829V28.9999Z" fill="#3BF270"/>
</svg>
