<svg width="30" height="28" viewBox="0 0 30 28" fill="none" xmlns="http://www.w3.org/2000/svg">
<path fill-rule="evenodd" clip-rule="evenodd" d="M26.8924 1.05458C27.2613 0.895572 27.665 0.84073 28.0616 0.895765C28.4582 0.9508 28.8331 1.1137 29.1473 1.36751C29.4616 1.62132 29.7037 1.95677 29.8484 2.33893C29.9931 2.72109 30.0352 3.13599 29.9702 3.54046L26.585 24.5725C26.2566 26.6013 24.0833 27.7647 22.2668 26.7542C20.7473 25.9087 18.4905 24.6062 16.4605 23.2471C15.4455 22.5667 12.3364 20.3881 12.7185 18.8379C13.0469 17.5124 18.271 12.5315 21.2563 9.57016C22.428 8.40672 21.8936 7.73556 20.51 8.80574C17.074 11.4628 11.5572 15.5035 9.73324 16.641C8.12419 17.6439 7.28533 17.8151 6.28229 17.6439C4.45233 17.332 2.75522 16.8489 1.37006 16.2603C-0.501689 15.4653 -0.410639 12.8296 1.36857 12.0621L26.8924 1.05458Z" fill="#3BF270"/>
</svg>
