<svg width="30" height="24" viewBox="0 0 30 24" fill="none" xmlns="http://www.w3.org/2000/svg">
<path d="M0.00537109 4.28152L14.9997 11.7778L29.9941 4.28152C29.9386 3.32611 29.5199 2.42806 28.8238 1.77132C28.1277 1.11458 27.2068 0.748848 26.2497 0.749024H3.74975C2.79272 0.748848 1.87183 1.11458 1.1757 1.77132C0.479574 2.42806 0.0608788 3.32611 0.00537109 4.28152Z" fill="#3BF270"/>
<path d="M30 8.4707L15 15.9707L0 8.4707V19.4995C0 20.494 0.395088 21.4478 1.09835 22.1511C1.80161 22.8544 2.75544 23.2495 3.75 23.2495H26.25C27.2446 23.2495 28.1984 22.8544 28.9016 22.1511C29.6049 21.4478 30 20.494 30 19.4995V8.4707Z" fill="#3BF270"/>
</svg>
