<svg width="17" height="13" viewBox="0 0 17 13" fill="none" xmlns="http://www.w3.org/2000/svg">
<path d="M1.38038 6.5L0.690192 5.81482L2.84124e-07 6.5L0.690192 7.18518L1.38038 6.5ZM16.0238 7.46914C16.2827 7.46914 16.531 7.36703 16.7141 7.18528C16.8971 7.00353 17 6.75703 17 6.5C17 6.24297 16.8971 5.99646 16.7141 5.81472C16.531 5.63297 16.2827 5.53086 16.0238 5.53086L16.0238 7.46914ZM6.54755 -2.86202e-07L0.690192 5.81482L2.07058 7.18518L7.92793 1.37036L6.54755 -2.86202e-07ZM0.690192 7.18518L6.54755 13L7.92793 11.6296L2.07058 5.81482L0.690192 7.18518ZM1.38038 7.46914L16.0238 7.46914L16.0238 5.53086L1.38038 5.53086L1.38038 7.46914Z" fill="white"/>
</svg>
